	<svg width="451" height='90"' viewBox="0 50 451 90" fill="none" xmlns="http://www.w3.org/2000/svg"2 >
		<path d="M50.1239 96.0805C50.1239 89.2412 53.403 85.2126 59.6802 85.2126C65.5826 85.2126 67.5501 89.4286 67.5501 94.8626V124H80.854V93.3636C80.854 81.9334 74.8579 73.7825 63.053 73.7825C56.0263 73.7825 51.0607 75.9373 46.751 80.7155C43.9403 76.4058 39.1622 73.7825 32.5102 73.7825C25.4835 73.7825 20.6117 76.6868 18.3631 80.9029V74.9067H6.08981V124H19.3937V95.7995C19.3937 89.2412 22.7665 85.2126 28.95 85.2126C34.8525 85.2126 36.8199 89.4286 36.8199 94.8626V124H50.1239V96.0805ZM138.272 103.295C138.272 103.295 138.459 101.515 138.459 99.3597C138.459 84.8378 128.622 73.7825 114.1 73.7825C99.578 73.7825 89.4595 84.8378 89.4595 99.3597C89.4595 114.444 99.6717 125.124 114.194 125.124C125.53 125.124 134.524 118.285 137.428 108.354H124.031C122.438 111.914 118.597 113.694 114.568 113.694C107.916 113.694 103.607 110.04 102.67 103.295H138.272ZM114.006 84.4631C120.19 84.4631 124.218 88.2106 125.155 93.7383H102.857C103.981 88.1169 107.916 84.4631 114.006 84.4631ZM170.495 112.195C170.495 112.195 169.183 112.664 167.403 112.664C163.937 112.664 162.438 111.165 162.438 107.885V85.3999H170.589V74.9067H162.438V62.7271H149.134V74.9067H142.482V85.3999H149.134V109.291C149.134 118.753 153.444 124.281 164.218 124.281C168.246 124.281 170.495 123.719 170.495 123.719V112.195ZM200.405 125.124C216.144 125.124 226.169 113.413 226.169 99.4534C226.169 85.4936 216.144 73.7825 200.405 73.7825C184.665 73.7825 174.64 85.4936 174.64 99.4534C174.64 113.413 184.665 125.124 200.405 125.124ZM187.944 99.4534C187.944 90.6466 193.378 85.4936 200.405 85.4936C207.431 85.4936 212.865 90.6466 212.865 99.4534C212.865 108.26 207.431 113.413 200.405 113.413C193.378 113.413 187.944 108.26 187.944 99.4534ZM279.315 96.0805C279.315 89.2412 282.594 85.2126 288.872 85.2126C294.774 85.2126 296.742 89.4286 296.742 94.8626V124H310.045V93.3636C310.045 81.9334 304.049 73.7825 292.244 73.7825C285.218 73.7825 280.252 75.9373 275.942 80.7155C273.132 76.4058 268.354 73.7825 261.702 73.7825C254.675 73.7825 249.803 76.6868 247.555 80.9029V74.9067H235.281V124H248.585V95.7995C248.585 89.2412 251.958 85.2126 258.141 85.2126C264.044 85.2126 266.011 89.4286 266.011 94.8626V124H279.315V96.0805ZM328.395 68.5359C333.079 68.5359 336.452 65.2567 336.452 60.5722C336.452 55.8878 333.079 52.515 328.395 52.515C323.71 52.515 320.337 55.8878 320.337 60.5722C320.337 65.2567 323.71 68.5359 328.395 68.5359ZM321.743 124H335.047V74.9067H321.743V124ZM344.178 99.4534C344.178 114.069 354.577 125.124 368.818 125.124C384.089 125.124 391.303 114.35 392.24 106.012H378.562C377.531 110.228 373.596 113.319 368.724 113.319C361.604 113.319 357.482 107.698 357.482 99.4534C357.482 91.2087 361.604 85.5873 368.724 85.5873C373.596 85.5873 377.531 88.6791 378.562 92.8951H392.24C391.303 84.5567 384.089 73.7825 368.818 73.7825C354.577 73.7825 344.178 84.8378 344.178 99.4534Z" fill="#313131"/>
		<path d="M450.845 111.964H404V124.518H450.845V111.964Z" fill="currentColor"/>
	</svg>